<svg width="32" height="32" viewBox="0 0 32 32" fill="none" xmlns="http://www.w3.org/2000/svg">
<circle cx="16" cy="16" r="16" fill="#EAEAEA"/>
<path d="M22.6 11C21.16 11 19.8 11.56 18.83 12.53L16 15.04L14.48 16.38H14.49L11.8 18.77C11.16 19.41 10.31 19.76 9.4 19.76C7.53 19.76 6.01 18.25 6.01 16.38C6.01 14.51 7.53 13 9.4 13C10.31 13 11.16 13.35 11.84 14.03L12.97 15.03L14.48 13.69L13.22 12.58C12.2 11.56 10.84 11 9.4 11C6.42 11 4 13.42 4 16.38C4 19.34 6.42 21.76 9.4 21.76C10.84 21.76 12.2 21.2 13.17 20.23L16 17.73L16.01 17.74L17.52 16.38H17.51L20.2 13.99C20.84 13.35 21.69 13 22.6 13C24.47 13 25.99 14.51 25.99 16.38C25.99 18.25 24.47 19.76 22.6 19.76C21.7 19.76 20.84 19.41 20.16 18.73L19.02 17.72L17.51 19.06L18.78 20.18C19.8 21.19 21.15 21.75 22.6 21.75C25.58 21.75 28 19.34 28 16.37C28 13.4 25.58 11 22.6 11V11Z" fill="#1B1B1B"/>
</svg>
